<mxfile host="app.diagrams.net" modified="2021-01-04T21:01:14.519Z" agent="5.0 (Macintosh)" etag="BgNqI1JtGuBNtGRtgV_u" version="14.1.7" type="github">
  <diagram id="A8uU5bi92MMNITzYzMUl" name="Page-1">
    <mxGraphModel dx="1965" dy="2205" grid="1" gridSize="10" guides="1" tooltips="1" connect="1" arrows="1" fold="1" page="1" pageScale="1" pageWidth="1169" pageHeight="827" math="0" shadow="0">
      <root>
        <mxCell id="0" />
        <mxCell id="1" parent="0" />
        <mxCell id="Xo8yXY23gKutWWj-pf9Q-1" value="Help please" style="text;html=1;strokeColor=none;fillColor=none;align=center;verticalAlign=middle;whiteSpace=wrap;rounded=0;fontSize=300;" vertex="1" parent="1">
          <mxGeometry x="565" y="-433" width="40" height="20" as="geometry" />
        </mxCell>
      </root>
    </mxGraphModel>
  </diagram>
</mxfile>
